<svg xmlns="http://www.w3.org/2000/svg" width="28" height="28" viewBox="0 0 28 28">
  <path id="Path_160" data-name="Path 160" d="M46,32a13.692,13.692,0,0,1,5.444,1.109,13.76,13.76,0,0,1,7.447,7.447,13.92,13.92,0,0,1,0,10.888,13.76,13.76,0,0,1-7.447,7.447,13.92,13.92,0,0,1-10.888,0,13.76,13.76,0,0,1-7.447-7.447,13.92,13.92,0,0,1,0-10.888,13.76,13.76,0,0,1,7.447-7.447A13.692,13.692,0,0,1,46,32Zm0,2.545a11.18,11.18,0,0,0-4.45.91,11.257,11.257,0,0,0-6.1,6.1,11.336,11.336,0,0,0,0,8.9,11.257,11.257,0,0,0,6.1,6.1,11.336,11.336,0,0,0,8.9,0,11.257,11.257,0,0,0,6.1-6.1,11.336,11.336,0,0,0,0-8.9,11.257,11.257,0,0,0-6.1-6.1A11.18,11.18,0,0,0,46,34.545Zm0,5.091a1.273,1.273,0,0,1,1.273,1.273v3.818h3.818a1.273,1.273,0,0,1,0,2.545H47.273v3.818a1.273,1.273,0,0,1-2.545,0V47.273H40.909a1.273,1.273,0,0,1,0-2.545h3.818V40.909A1.273,1.273,0,0,1,46,39.636Z" transform="translate(-32 -32)" fill="#eb7f00"/>
</svg>
